HIERARCHY
ROOT Hips
{
    OFFSET 0.000000 0.000000 0.000000
    CHANNELS 6 Xposition Yposition Zposition Zrotation Yrotation Xrotation
    JOINT Chest
    {
        OFFSET 0.000000 1.634758 -0.000000
        CHANNELS 3 Zrotation Yrotation Xrotation
        JOINT Chest2
        {
            OFFSET 0.000000 2.197341 0.000000
            CHANNELS 3 Zrotation Yrotation Xrotation
            JOINT Neck
            {
                OFFSET 0.000000 0.961544 0.000000
                CHANNELS 3 Zrotation Yrotation Xrotation
                JOINT Head
                {
                    OFFSET 0.000000 0.632542 -0.032565
                    CHANNELS 3 Zrotation Yrotation Xrotation
                    End Site
                    {
                        OFFSET -0.000001 0.439502 2.922845
                    }
                }
            }
            JOINT LeftCollar
            {
                OFFSET 0.167536 0.778237 -0.168280
                CHANNELS 3 Zrotation Yrotation Xrotation
                JOINT LeftShoulder
                {
                    OFFSET 0.831514 -0.002900 0.006458
                    CHANNELS 3 Zrotation Yrotation Xrotation
                    JOINT LeftElbow
                    {
                        OFFSET 2.272872 -0.026639 0.059314
                        CHANNELS 3 Zrotation Yrotation Xrotation
                        JOINT LeftWrist
                        {
                            OFFSET 2.081982 -0.024402 0.054333
                            CHANNELS 3 Zrotation Yrotation Xrotation
                            JOINT LeftHandThumb1
                            {
                                OFFSET 0.218903 -0.128645 0.283837
                                CHANNELS 3 Zrotation Yrotation Xrotation
                                JOINT LeftHandThumb2
                                {
                                    OFFSET 0.137157 -0.025101 0.077902
                                    CHANNELS 3 Zrotation Yrotation Xrotation
                                    JOINT LeftHandThumb3
                                    {
                                        OFFSET 0.144650 -0.031049 -0.107944
                                        CHANNELS 3 Zrotation Yrotation Xrotation
                                        End Site
                                        {
                                            OFFSET 0.223638 0.023433 -0.145854
                                        }
                                    }
                                }
                            }
                            JOINT LeftHandFore1
                            {
                                OFFSET 0.767340 -0.016076 0.196678
                                CHANNELS 3 Zrotation Yrotation Xrotation
                                JOINT LeftHandFore2
                                {
                                    OFFSET 0.012189 -0.216197 -0.010287
                                    CHANNELS 3 Zrotation Yrotation Xrotation
                                    JOINT LeftHandFore3
                                    {
                                        OFFSET -0.123740 0.037045 0.008894
                                        CHANNELS 3 Zrotation Yrotation Xrotation
                                        End Site
                                        {
                                            OFFSET 0.064189 0.182125 0.008784
                                        }
                                    }
                                }
                            }
                            JOINT LeftHandMiddle1
                            {
                                OFFSET 0.709887 -0.008320 0.018526
                                CHANNELS 3 Zrotation Yrotation Xrotation
                                JOINT LeftHandMiddle2
                                {
                                    OFFSET 0.020215 -0.244140 0.007148
                                    CHANNELS 3 Zrotation Yrotation Xrotation
                                    JOINT LeftHandMiddle3
                                    {
                                        OFFSET -0.144280 0.023769 -0.001266
                                        CHANNELS 3 Zrotation Yrotation Xrotation
                                        End Site
                                        {
                                            OFFSET 0.107424 0.209972 0.001457
                                        }
                                    }
                                }
                            }
                            JOINT LeftHandRing1
                            {
                                OFFSET 0.743817 -0.005823 -0.153668
                                CHANNELS 3 Zrotation Yrotation Xrotation
                                JOINT LeftHandRing2
                                {
                                    OFFSET -0.000881 -0.353054 -0.009257
                                    CHANNELS 3 Zrotation Yrotation Xrotation
                                    JOINT LeftHandRing3
                                    {
                                        OFFSET -0.123099 0.058635 -0.003771
                                        CHANNELS 3 Zrotation Yrotation Xrotation
                                        End Site
                                        {
                                            OFFSET 0.077329 0.091847 0.002005
                                        }
                                    }
                                }
                            }
                            JOINT LeftHandLittle1
                            {
                                OFFSET 0.689408 -0.053302 -0.308304
                                CHANNELS 3 Zrotation Yrotation Xrotation
                                JOINT LeftHandLittle2
                                {
                                    OFFSET 0.012441 -0.194663 -0.002365
                                    CHANNELS 3 Zrotation Yrotation Xrotation
                                    JOINT LeftHandLittle3
                                    {
                                        OFFSET -0.110186 0.034910 -0.033714
                                        CHANNELS 3 Zrotation Yrotation Xrotation
                                        End Site
                                        {
                                            OFFSET 0.045410 0.184353 -0.015514
                                        }
                                    }
                                }
                            }
                        }
                    }
                }
            }
            JOINT RightCollar
            {
                OFFSET -0.167536 0.778237 -0.168280
                CHANNELS 3 Zrotation Yrotation Xrotation
                JOINT RightShoulder
                {
                    OFFSET -0.831514 -0.002900 0.006457
                    CHANNELS 3 Zrotation Yrotation Xrotation
                    JOINT RightElbow
                    {
                        OFFSET -2.272872 -0.026639 0.059313
                        CHANNELS 3 Zrotation Yrotation Xrotation
                        JOINT RightWrist
                        {
                            OFFSET -2.081982 -0.024402 0.054331
                            CHANNELS 3 Zrotation Yrotation Xrotation
                            JOINT RightHandThumb1
                            {
                                OFFSET -0.218911 -0.128571 0.283837
                                CHANNELS 3 Zrotation Yrotation Xrotation
                                JOINT RightHandThumb2
                                {
                                    OFFSET -0.137157 -0.025101 0.077902
                                    CHANNELS 3 Zrotation Yrotation Xrotation
                                    JOINT RightHandThumb3
                                    {
                                        OFFSET -0.066669 -0.169879 -0.015352
                                        CHANNELS 3 Zrotation Yrotation Xrotation
                                        End Site
                                        {
                                            OFFSET -0.066435 -0.256448 0.040711
                                        }
                                    }
                                }
                            }
                            JOINT RightHandFore1
                            {
                                OFFSET -0.767344 -0.015991 0.196679
                                CHANNELS 3 Zrotation Yrotation Xrotation
                                JOINT RightHandFore2
                                {
                                    OFFSET -0.012239 -0.216197 -0.010290
                                    CHANNELS 3 Zrotation Yrotation Xrotation
                                    JOINT RightHandFore3
                                    {
                                        OFFSET 0.123680 0.037745 -0.006370
                                        CHANNELS 3 Zrotation Yrotation Xrotation
                                        End Site
                                        {
                                            OFFSET -0.064172 0.182111 0.009183
                                        }
                                    }
                                }
                            }
                            JOINT RightHandMiddle1
                            {
                                OFFSET -0.709887 -0.008302 0.018525
                                CHANNELS 3 Zrotation Yrotation Xrotation
                                JOINT RightHandMiddle2
                                {
                                    OFFSET -0.020190 -0.244138 0.007149
                                    CHANNELS 3 Zrotation Yrotation Xrotation
                                    JOINT RightHandMiddle3
                                    {
                                        OFFSET 0.143696 0.023471 -0.013602
                                        CHANNELS 3 Zrotation Yrotation Xrotation
                                        End Site
                                        {
                                            OFFSET -0.107581 0.209888 -0.001895
                                        }
                                    }
                                }
                            }
                            JOINT RightHandRing1
                            {
                                OFFSET -0.743819 -0.005785 -0.153669
                                CHANNELS 3 Zrotation Yrotation Xrotation
                                JOINT RightHandRing2
                                {
                                    OFFSET 0.000856 -0.353054 -0.009253
                                    CHANNELS 3 Zrotation Yrotation Xrotation
                                    JOINT RightHandRing3
                                    {
                                        OFFSET 0.121938 0.058977 -0.016052
                                        CHANNELS 3 Zrotation Yrotation Xrotation
                                        End Site
                                        {
                                            OFFSET -0.075942 0.091442 0.017073
                                        }
                                    }
                                }
                            }
                            JOINT RightHandLittle1
                            {
                                OFFSET -0.689403 -0.053298 -0.308303
                                CHANNELS 3 Zrotation Yrotation Xrotation
                                JOINT RightHandLittle2
                                {
                                    OFFSET -0.012447 -0.194666 -0.002365
                                    CHANNELS 3 Zrotation Yrotation Xrotation
                                    JOINT RightHandLittle3
                                    {
                                        OFFSET 0.115357 0.034217 -0.004195
                                        CHANNELS 3 Zrotation Yrotation Xrotation
                                        End Site
                                        {
                                            OFFSET -0.036004 0.183086 0.038363
                                        }
                                    }
                                }
                            }
                        }
                    }
                }
            }
        }
    }
    JOINT LeftHip
    {
        OFFSET 0.685143 0.673822 -0.044491
        CHANNELS 3 Zrotation Yrotation Xrotation
        JOINT LeftKnee
        {
            OFFSET 0.085364 -3.750208 0.017676
            CHANNELS 3 Zrotation Yrotation Xrotation
            JOINT LeftAnkle
            {
                OFFSET 0.094583 -4.155206 0.019585
                CHANNELS 3 Zrotation Yrotation Xrotation
                JOINT LeftToe
                {
                    OFFSET -0.000000 -0.395925 0.621478
                    CHANNELS 3 Zrotation Yrotation Xrotation
                    End Site
                    {
                        OFFSET -0.000000 -0.077878 0.321152
                    }
                }
            }
        }
    }
    JOINT RightHip
    {
        OFFSET -0.685143 0.673822 -0.044492
        CHANNELS 3 Zrotation Yrotation Xrotation
        JOINT RightKnee
        {
            OFFSET -0.085364 -3.750208 0.017677
            CHANNELS 3 Zrotation Yrotation Xrotation
            JOINT RightAnkle
            {
                OFFSET -0.094583 -4.155206 0.019585
                CHANNELS 3 Zrotation Yrotation Xrotation
                JOINT RightToe
                {
                    OFFSET -0.000000 -0.395925 0.621478
                    CHANNELS 3 Zrotation Yrotation Xrotation
                    End Site
                    {
                        OFFSET -0.000000 -0.077878 0.321152
                    }
                }
            }
        }
    }
}
MOTION
Frames: 6
Frame Time: 0.033333
-0.215970 8.343575 -3.691516 173.612366 -40.245922 -174.926208 -6.345654 1.421800 1.825317 -0.170903 -0.207310 -3.410880 -2.700605 -7.690191 7.084339 0.806006 -15.282141 15.496125 -0.766854 -9.089800 -0.035348 -163.065933 -68.034180 159.050812 0.574538 -57.559959 -1.053263 10.118756 -1.519209 -15.348206 -0.000003 0.000002 0.000015 16.123024 -53.810036 -49.516243 -8.685984 -6.505955 -5.413930 80.468025 0.472763 -1.360022 110.042412 -5.783920 -3.889546 93.896957 -6.615776 -2.279100 78.463478 2.773141 -0.108556 104.271614 2.095850 0.661587 106.582268 3.161425 0.762929 26.915522 2.385031 3.895424 3.967575 2.237856 -0.498832 32.056728 3.606158 -3.437134 35.803883 2.115073 -0.532380 -12.176625 2.771594 -9.919186 51.532810 4.503353 7.227925 2.667903 12.650624 -0.034759 26.942480 48.442554 18.697384 -3.078363 79.734077 -3.692867 9.885811 -4.003458 12.467279 0.000000 0.000005 0.000000 -1.074776 1.162391 0.283789 -0.247551 -0.045214 0.066155 -1.258995 -0.058650 -0.296756 -2.097210 0.023178 -0.064882 -2.073546 0.058601 -0.075180 -1.218552 -0.097906 -0.033119 -1.971819 -0.104347 -0.166357 -2.612849 -0.020267 -0.168129 -1.950467 -0.041823 -0.003018 -3.274476 0.030536 -0.426375 -3.259399 0.128540 -0.480328 -1.923973 -0.132125 0.252214 -2.815010 0.251960 -0.711242 -2.945978 0.328038 -0.323615 -10.925719 -8.207170 -2.171183 0.158840 0.623728 28.572279 -4.015141 -5.611935 -7.855753 -0.119045 -2.783789 -11.181211 -12.807167 2.458179 -42.675751 -0.768303 -1.188909 65.744370 7.099191 -21.470201 11.005375 0.000000 0.000002 0.000012
-0.170584 8.339906 -3.660137 175.906006 -40.174015 -176.771149 -4.925260 0.563397 -0.536440 -0.134219 -0.076367 -3.105810 -3.891891 -6.715487 6.850993 0.685807 -13.088155 15.084960 -1.653060 -13.103916 -0.048816 -155.089615 -72.204399 152.055679 0.137107 -34.118153 -0.454146 8.431271 0.035927 -17.700472 0.000000 0.000005 0.000009 16.123030 -53.810040 -49.516243 -8.685987 -6.505954 -5.413932 80.468018 0.472756 -1.360029 110.042412 -5.783922 -3.889545 93.896957 -6.615775 -2.279091 78.463478 2.773126 -0.108558 104.271614 2.095850 0.661590 106.582268 3.161419 0.762939 26.915514 2.385026 3.895433 3.967578 2.237853 -0.498835 32.056717 3.606160 -3.437132 35.803879 2.115062 -0.532375 -12.176626 2.771597 -9.919193 51.532814 4.503352 7.227929 1.566398 11.794988 -0.039556 25.544750 50.614918 14.650928 -17.885433 87.901352 -18.548677 9.987363 -3.375967 15.040713 0.000003 -0.000003 0.000006 -0.277278 0.302693 0.075860 -0.063989 -0.011710 0.017040 -0.325297 -0.015259 -0.077457 -0.541707 0.005958 -0.016621 -0.536022 0.015472 -0.019050 -0.314765 -0.025521 -0.008577 -0.509304 -0.026687 -0.043376 -0.677101 -0.004289 -0.043557 -0.509715 -0.010635 -0.000930 -0.855872 0.009652 -0.111000 -0.851807 0.036529 -0.124467 -0.502713 -0.034368 0.065921 -0.735285 0.068183 -0.185627 -0.769883 0.087182 -0.081639 -10.794096 -8.395912 2.471398 0.092486 0.482342 21.706278 0.121167 -1.735497 -12.421535 -0.124716 -1.209532 -7.743516 -9.047579 2.523507 -48.586239 -1.001807 -1.268511 76.601387 6.666434 -18.162376 3.043256 -0.000001 -0.000002 -0.000003
-0.117826 8.337966 -3.635657 178.102600 -40.104401 -178.080704 -3.506137 -0.006588 -2.265057 -0.037634 0.004131 -3.081352 -4.716557 -6.040755 6.651097 0.605366 -11.597274 14.710368 -1.618201 -15.543721 -0.055378 -165.366364 -67.707939 160.661224 0.000001 0.000001 -0.000000 6.734454 -3.133614 -16.970327 0.000007 0.000019 0.000010 16.123018 -53.810036 -49.516247 -8.685986 -6.505958 -5.413929 80.468025 0.472756 -1.360016 110.042412 -5.783920 -3.889548 93.896957 -6.615772 -2.279094 78.463478 2.773131 -0.108543 104.271614 2.095850 0.661583 106.582268 3.161424 0.762938 26.915522 2.385035 3.895437 3.967574 2.237857 -0.498837 32.056721 3.606157 -3.437135 35.803894 2.115075 -0.532365 -12.176626 2.771596 -9.919188 51.532810 4.503357 7.227928 1.223709 11.021946 -0.039079 24.303316 51.344116 14.042417 -169.955231 85.896614 -170.654129 10.132073 -2.720414 15.698398 0.000008 0.000009 -0.000012 0.000100 -0.000041 0.000001 0.000004 0.000003 0.000005 0.000007 0.000002 0.000003 0.000085 -0.000003 0.000003 0.000109 -0.000005 0.000006 0.000048 0.000002 -0.000003 0.000101 0.000002 0.000009 -0.000041 -0.000005 -0.000000 0.000082 0.000015 0.000005 -0.000015 -0.000000 -0.000003 0.000042 -0.000002 0.000007 0.000076 0.000015 0.000003 0.000087 -0.000009 0.000018 0.000106 -0.000020 0.000015 -10.332553 -8.577847 2.687271 0.101734 0.504949 22.779671 2.553672 3.066980 -18.844677 -0.008034 -0.034074 -0.364907 -6.401517 2.541299 -52.661564 -1.142025 -1.293903 82.866264 5.975904 -14.977968 -0.929067 0.000002 -0.000002 -0.000009
-0.054567 8.337803 -3.627035 -179.823471 -40.073170 -178.635986 -2.147838 -0.193635 -3.345605 0.076257 0.024114 -3.538010 -5.031834 -5.782442 6.633264 0.576739 -11.062662 14.677711 -0.972956 -16.296412 -0.057998 -168.571365 -73.138817 164.504196 -0.000000 0.000002 0.000000 4.388040 -5.215306 -15.244493 0.000003 0.000009 0.000012 16.123018 -53.810036 -49.516254 -8.685982 -6.505955 -5.413926 80.468025 0.472756 -1.360018 110.042412 -5.783922 -3.889546 93.896957 -6.615776 -2.279095 78.463478 2.773133 -0.108545 104.271614 2.095850 0.661585 106.582268 3.161424 0.762937 26.915516 2.385036 3.895435 3.967576 2.237856 -0.498833 32.056721 3.606158 -3.437135 35.803902 2.115075 -0.532366 -12.176622 2.771596 -9.919192 51.532818 4.503353 7.227930 0.670463 10.723882 -0.038141 19.798004 52.286282 10.083060 -173.697418 83.178696 -174.412521 10.271834 -2.015255 16.448961 0.000002 0.000010 -0.000002 0.000099 -0.000046 0.000001 0.000006 -0.000000 0.000006 0.000000 -0.000002 0.000011 0.000085 -0.000003 0.000003 0.000111 -0.000003 0.000006 0.000048 0.000002 0.000006 0.000102 0.000002 0.000009 -0.000044 -0.000003 -0.000002 0.000082 0.000005 0.000013 -0.000015 -0.000002 -0.000001 0.000038 -0.000003 0.000003 0.000076 0.000012 0.000011 0.000086 -0.000012 0.000017 0.000106 -0.000017 0.000019 -9.384048 -8.695660 0.648873 0.141565 0.590907 26.942734 3.432355 7.685588 -24.436525 0.000003 0.000009 -0.000001 -8.518593 2.460417 -51.649128 -0.893808 -1.237819 71.666016 7.499008 -11.200904 14.043890 0.000000 0.000002 -0.000002
-0.044127 8.337897 -3.719897 -177.897751 -39.930046 178.156189 -0.963449 -0.071012 -1.190071 0.107588 0.002966 -3.514727 -4.998233 -5.753964 6.599635 0.575857 -11.046166 14.614853 0.083124 -16.646406 -0.059753 178.837723 -78.330116 178.642792 0.000000 -0.000000 0.000000 1.875213 -5.243274 -13.109617 0.000002 0.000012 0.000008 16.123028 -53.810040 -49.516239 -8.685979 -6.505949 -5.413934 80.468018 0.472759 -1.360021 110.042412 -5.783921 -3.889546 93.896957 -6.615776 -2.279097 78.463478 2.773133 -0.108546 104.271614 2.095851 0.661588 106.582268 3.161423 0.762936 26.915522 2.385034 3.895434 3.967576 2.237855 -0.498834 32.056728 3.606154 -3.437133 35.803883 2.115071 -0.532369 -12.176625 2.771595 -9.919188 51.532814 4.503354 7.227927 0.097539 10.793191 -0.038073 14.365527 53.051273 4.929923 -173.647324 83.238930 -174.362076 10.405790 -1.275531 17.208927 -0.000000 0.000009 -0.000004 0.000099 -0.000048 -0.000001 0.000007 0.000002 0.000004 0.000008 0.000003 0.000012 0.000087 -0.000002 0.000004 0.000112 -0.000003 0.000003 0.000055 0.000003 0.000007 0.000101 0.000002 0.000009 -0.000041 -0.000000 -0.000003 0.000090 0.000007 0.000014 -0.000016 -0.000003 -0.000002 0.000044 -0.000005 0.000005 0.000082 0.000027 0.000013 0.000085 -0.000012 0.000015 0.000108 -0.000019 0.000015 -8.512098 -8.313938 1.724031 0.187857 0.674277 31.133440 3.750131 11.195052 -20.656334 0.000000 -0.000002 0.000003 -9.115698 2.291157 -42.956974 -0.563511 -1.073398 55.398495 12.588984 -7.531035 24.753050 -0.000002 -0.000005 0.000002
-0.087984 8.346416 -3.911891 -176.145828 -39.529282 172.202072 0.023743 0.240326 3.635629 0.051635 -0.041507 -2.730261 -4.903923 -5.752287 6.421658 0.578832 -11.101828 14.275991 1.245657 -16.617384 -0.058814 151.809067 -81.131424 -152.434845 0.000001 -0.000000 0.000000 -0.120179 -5.254783 -11.407242 0.000000 0.000007 0.000005 16.123014 -53.810040 -49.516251 -8.685982 -6.505957 -5.413929 80.468018 0.472758 -1.360022 110.042412 -5.783923 -3.889544 93.896950 -6.615774 -2.279095 78.463478 2.773135 -0.108548 104.271622 2.095850 0.661591 106.582268 3.161423 0.762937 26.915522 2.385032 3.895430 3.967571 2.237858 -0.498834 32.056721 3.606155 -3.437136 35.803886 2.115070 -0.532372 -12.176624 2.771596 -9.919190 51.532810 4.503353 7.227926 -0.264378 10.860191 -0.038389 11.205321 53.016201 1.590206 -173.605728 83.288139 -174.320190 10.532919 -0.516303 17.894630 0.000002 -0.000002 0.000014 0.000100 -0.000044 0.000002 0.000003 0.000002 0.000003 -0.000001 0.000003 0.000007 0.000085 -0.000000 0.000003 0.000108 -0.000005 0.000009 0.000048 -0.000000 0.000002 0.000101 0.000007 0.000007 -0.000043 -0.000003 -0.000003 0.000075 0.000005 0.000005 -0.000015 -0.000000 0.000000 0.000045 -0.000002 0.000007 0.000075 0.000015 0.000003 0.000088 -0.000010 0.000020 0.000108 -0.000017 0.000015 -7.540348 -7.277657 6.599125 0.221658 0.727298 33.896465 4.205479 12.141947 -13.845359 0.012944 0.092964 -5.701915 -7.067125 -10.224377 -31.349268 -0.292850 -0.823459 39.155880 14.820054 8.025854 37.877865 0.116511 1.665286 -9.627857
